<svg width="18" height="19" viewBox="0 0 18 19" fill="none" xmlns="http://www.w3.org/2000/svg">
<path fill-rule="evenodd" clip-rule="evenodd" d="M9.83374 10.0002C9.83374 10.461 9.46041 10.8335 9.00041 10.8335C8.54041 10.8335 8.16708 10.461 8.16708 10.0002V1.66683C8.16708 1.206 8.54041 0.833496 9.00041 0.833496C9.46041 0.833496 9.83374 1.206 9.83374 1.66683V10.0002ZM11.6995 2.95124C11.9103 2.54208 12.4137 2.38291 12.822 2.59291C15.6045 4.03208 17.3337 6.86958 17.3337 10.0004C17.3337 14.5946 13.5953 18.3337 9.00033 18.3337C4.40533 18.3337 0.666992 14.5946 0.666992 10.0004C0.666992 6.86958 2.39616 4.03208 5.17949 2.59291C5.58699 2.38208 6.09033 2.54124 6.30199 2.95124C6.51366 3.35958 6.35283 3.86208 5.94449 4.07374C3.71699 5.22458 2.33366 7.49541 2.33366 10.0004C2.33366 13.6762 5.32449 16.6671 9.00033 16.6671C12.6762 16.6671 15.667 13.6762 15.667 10.0004C15.667 7.49541 14.2837 5.22458 12.057 4.07374C11.6478 3.86208 11.4878 3.35958 11.6995 2.95124Z" fill="#F9FAFC"/>
</svg>
